<?xml version="1.0" encoding="utf-8"?>
<!-- Generator: Adobe Illustrator 17.1.0, SVG Export Plug-In . SVG Version: 6.00 Build 0)  -->
<!DOCTYPE svg PUBLIC "-//W3C//DTD SVG 1.1 Basic//EN" "http://www.w3.org/Graphics/SVG/1.1/DTD/svg11-basic.dtd">
<svg version="1.1" baseProfile="basic" id="Layer_1"
	 xmlns="http://www.w3.org/2000/svg" xmlns:xlink="http://www.w3.org/1999/xlink" x="0px" y="0px" viewBox="0 0 271.9 40.3"
	 xml:space="preserve">
<g>
	<g>
		<path fill="#FFFFFF" d="M78,2.3c1,0,1.4,0.1,1.8,0.4c0.4,0.2,0.9,0.7,0.9,1.7c0,0.4-0.1,1-0.6,1.4c0.9,0.3,1.3,1,1.3,1.8
			c0,0.4,0,1.2-0.8,1.8c-0.6,0.5-1.3,0.5-2,0.5h-1.8V2.3H78z M78,5.6h0.4c0.3,0,1.2,0,1.2-1.1c0-0.9-0.7-1.1-1.2-1.1H78V5.6z
			 M78,8.8h0.7c1.3,0,1.5-0.7,1.5-1.1c0-0.5-0.3-1.2-1.5-1.2H78V8.8z"/>
		<path fill="#FFFFFF" d="M88.5,4.1c-0.8-0.8-1.6-0.8-2.1-0.8c-1.7,0-2.8,1.2-2.8,2.9c0,1.6,1.2,2.9,2.8,2.9c0.9,0,1.6-0.5,2.1-0.9
			v1.4c-0.8,0.5-1.6,0.6-2.1,0.6c-1.4,0-2.3-0.6-2.7-1.1c-0.9-0.8-1.2-1.8-1.2-2.9c0-1.4,0.6-2.4,1.2-3c0.8-0.7,1.7-1,2.8-1
			c0.7,0,1.4,0.1,2,0.5V4.1z"/>
		<path fill="#FFFFFF" d="M94.2,3.4h-3v1.8h3v1.1h-3v2.5h3v1.1H90V2.3h4.2V3.4z"/>
		<path fill="#FFFFFF" d="M97.4,2.3c0.5,0,1.1,0,1.7,0.4c0.6,0.4,1,1.2,1,1.9c0,0.4-0.1,1.1-0.7,1.7c-0.6,0.5-1.3,0.6-1.9,0.6h-0.5
			v3.1h-1.2V2.3H97.4z M96.8,5.8h0.5c1,0,1.5-0.5,1.5-1.2c0-0.4-0.2-1.2-1.5-1.2h-0.5V5.8z"/>
		<path fill="#FFFFFF" d="M108.8,6.1c0,2.2-1.7,4-4,4c-2.3,0-4-1.7-4-4s1.7-4,4-4C107.1,2.2,108.8,3.9,108.8,6.1z M107.6,6.1
			c0-1.7-1.2-2.9-2.8-2.9c-1.6,0-2.8,1.2-2.8,2.9c0,1.7,1.2,2.9,2.8,2.9C106.4,9,107.6,7.8,107.6,6.1z"/>
		<path fill="#FFFFFF" d="M115.9,4.1c-0.8-0.8-1.6-0.8-2.1-0.8c-1.7,0-2.8,1.2-2.8,2.9c0,1.6,1.2,2.9,2.8,2.9c0.9,0,1.6-0.5,2.1-0.9
			v1.4c-0.8,0.5-1.6,0.6-2.1,0.6c-1.4,0-2.3-0.6-2.7-1.1c-0.9-0.8-1.2-1.8-1.2-2.9c0-1.4,0.6-2.4,1.2-3c0.8-0.7,1.7-1,2.8-1
			c0.7,0,1.4,0.1,2,0.5V4.1z"/>
		<path fill="#FFFFFF" d="M123,4.1c-0.8-0.8-1.6-0.8-2.1-0.8c-1.7,0-2.8,1.2-2.8,2.9c0,1.6,1.2,2.9,2.8,2.9c0.9,0,1.6-0.5,2.1-0.9
			v1.4c-0.8,0.5-1.6,0.6-2.1,0.6c-1.4,0-2.3-0.6-2.7-1.1c-0.9-0.8-1.2-1.8-1.2-2.9c0-1.4,0.6-2.4,1.2-3c0.8-0.7,1.7-1,2.8-1
			c0.7,0,1.4,0.1,2,0.5V4.1z"/>
		<path fill="#FFFFFF" d="M129.6,4.8l-5.1,5.5v-8h1.2v5.2l5.1-5.5v8h-1.2V4.8z"/>
		<path fill="#FFFFFF" d="M137.7,4.8l-5.1,5.5v-8h1.2v5.2l5.1-5.5v8h-1.2V4.8z M134.8,0c0.2,0.6,0.9,0.6,1,0.6c0.1,0,0.8,0,1-0.6
			l0.9,0.4c-0.3,0.8-1.1,1.2-1.9,1.2s-1.6-0.3-1.9-1.2L134.8,0z"/>
		<path fill="#FFFFFF" d="M146.4,4.1c-0.8-0.8-1.6-0.8-2.1-0.8c-1.7,0-2.8,1.2-2.8,2.9c0,1.6,1.2,2.9,2.8,2.9c0.9,0,1.6-0.5,2.1-0.9
			v1.4c-0.8,0.5-1.6,0.6-2.1,0.6c-1.4,0-2.3-0.6-2.7-1.1c-0.9-0.8-1.2-1.8-1.2-2.9c0-1.4,0.6-2.4,1.2-3c0.8-0.7,1.7-1,2.8-1
			c0.7,0,1.4,0.1,2,0.5V4.1z"/>
		<path fill="#FFFFFF" d="M149,5.4l3-3h1.5L150,5.8l3.5,4.2h-1.6l-2.7-3.4L149,6.8v3.2h-1.2V2.3h1.2V5.4z"/>
		<path fill="#FFFFFF" d="M159.7,4.8l-5.1,5.5v-8h1.2v5.2l5.1-5.5v8h-1.2V4.8z"/>
		<path fill="#FFFFFF" d="M167.8,4.8l-5.2,5.5v-8h1.2v5.2L169,2v8h-1.2V4.8z M164.9,0c0.2,0.6,0.9,0.6,1,0.6s0.8,0,1-0.6l0.9,0.4
			c-0.3,0.8-1.1,1.2-1.9,1.2c-0.8,0-1.6-0.3-1.9-1.2L164.9,0z"/>
		<path fill="#FFFFFF" d="M175.1,6L173,2.3h1.3l1.5,2.6l1.5-2.6h1.3L176.4,6l2.3,4h-1.3L175.8,7L174,9.9h-1.3L175.1,6z"/>
		<path fill="#FFFFFF" d="M180.3,2.3l2,4l1.8-4h1.2l-3.4,7.6h-1.2l1-2.3l-2.8-5.4H180.3z"/>
		<path fill="#FFFFFF" d="M191.1,2.3v6.5h0.9v2.8h-1.1V9.9h-4.9v1.7h-1.1V8.8c0.5,0,1-0.5,1.2-1c0.1-0.4,0.3-0.9,0.3-2V2.3H191.1z
			 M187.5,5.8c0,1.2-0.1,1.8-0.3,2.1c-0.2,0.4-0.4,0.7-0.6,0.9h3.3V3.4h-2.4V5.8z"/>
		<path fill="#FFFFFF" d="M200.6,6.1c0,2.2-1.7,4-4,4s-4-1.7-4-4s1.7-4,4-4S200.6,3.9,200.6,6.1z M199.5,6.1c0-1.7-1.2-2.9-2.8-2.9
			s-2.8,1.2-2.8,2.9c0,1.7,1.2,2.9,2.8,2.9S199.5,7.8,199.5,6.1z"/>
		<path fill="#FFFFFF" d="M206.6,2.3v3.1l2.7-3.1h1.4l-3.1,3.5l3.2,4.1h-1.4l-2.6-3.4l-0.2,0.2v3.2h-1.2V6.8l-0.2-0.2l-2.6,3.4h-1.4
			l3.2-4.1l-3.1-3.5h1.4l2.7,3.1V2.3H206.6z"/>
		<path fill="#FFFFFF" d="M216,3.4h-3v1.8h3v1.1h-3v2.5h3v1.1h-4.2V2.3h4.2V3.4z"/>
		<path fill="#FFFFFF" d="M223.2,4.1c-0.8-0.8-1.6-0.8-2.1-0.8c-1.7,0-2.8,1.2-2.8,2.9c0,1.6,1.2,2.9,2.8,2.9c0.9,0,1.6-0.5,2.1-0.9
			v1.4c-0.8,0.5-1.6,0.6-2.1,0.6c-1.4,0-2.3-0.6-2.7-1.1c-0.9-0.8-1.2-1.8-1.2-2.9c0-1.4,0.6-2.4,1.2-3c0.8-0.7,1.7-1,2.8-1
			c0.7,0,1.4,0.1,2,0.5V4.1z"/>
		<path fill="#FFFFFF" d="M226.7,3.4v6.5h-1.2V3.4h-1.8V2.3h4.7v1.1H226.7z"/>
		<path fill="#FFFFFF" d="M230.7,2.3c1,0,1.4,0.1,1.8,0.4c0.4,0.2,0.9,0.7,0.9,1.7c0,0.4-0.1,1-0.6,1.4c0.9,0.3,1.3,1,1.3,1.8
			c0,0.4,0,1.2-0.8,1.8c-0.6,0.5-1.3,0.5-2,0.5h-1.8V2.3H230.7z M230.7,5.6h0.4c0.3,0,1.2,0,1.2-1.1c0-0.9-0.7-1.1-1.2-1.1h-0.4V5.6
			z M230.7,8.8h0.7c1.3,0,1.5-0.7,1.5-1.1c0-0.5-0.3-1.2-1.5-1.2h-0.7V8.8z"/>
		<path fill="#FFFFFF" d="M239.7,3.4h-3v1.8h3v1.1h-3v2.5h3v1.1h-4.2V2.3h4.2V3.4z"/>
		<path fill="#FFFFFF" d="M242.4,5.3h3.3v-3h1.2v7.6h-1.2V6.4h-3.3v3.6h-1.2V2.3h1.2V5.3z"/>
		<path fill="#FFFFFF" d="M249.9,5.3h3.3v-3h1.2v7.6h-1.2V6.4h-3.3v3.6h-1.2V2.3h1.2V5.3z"/>
		<path fill="#FFFFFF" d="M256.1,2.3h1.2v3.1h0.9c0.5,0,1.3,0.1,1.9,0.6c0.4,0.4,0.7,1,0.7,1.7s-0.3,1.4-1,1.9
			c-0.5,0.4-1.2,0.4-1.7,0.4h-2V2.3z M257.3,8.8h0.8c0.3,0,1.5,0,1.5-1.2c0-0.5-0.3-1.2-1.5-1.2h-0.8V8.8z M262.8,2.3v7.6h-1.2V2.3
			H262.8z"/>
		<path fill="#FFFFFF" d="M269.8,4.8l-5.1,5.5v-8h1.2v5.2l5.1-5.5v8h-1.2V4.8z M266.8,0c0.2,0.6,0.9,0.6,1,0.6s0.8,0,1-0.6l0.9,0.4
			c-0.3,0.8-1.1,1.2-1.9,1.2c-0.8,0-1.6-0.3-1.9-1.2L266.8,0z"/>
		<path fill="#FFFFFF" d="M78,19h3.3v-3h1.2v7.6h-1.2v-3.6H78v3.6h-1.2V16H78V19z"/>
		<path fill="#FFFFFF" d="M88.8,21.8h-3.3l-0.8,1.8h-1.3l3.8-8.1l3.6,8.1h-1.3L88.8,21.8z M88.3,20.7l-1.1-2.6L86,20.7H88.3z"/>
		<path fill="#FFFFFF" d="M92,16l2,4l1.8-4H97l-3.4,7.6h-1.2l1-2.3L90.6,16H92z"/>
		<path fill="#FFFFFF" d="M101.9,20.5c-0.4,0-1.2,0.1-1.6,0.1c-0.5,0-1.3,0-1.9-0.5c-0.7-0.6-0.7-1.5-0.7-1.9V16h1.2v2.1
			c0,0.3,0,0.9,0.4,1.2c0.3,0.2,0.7,0.2,1.2,0.2c0.5,0,1,0,1.4-0.1V16h1.2v7.6h-1.2V20.5z"/>
		<path fill="#FFFFFF" d="M106.1,19h3.3v-3h1.2v7.6h-1.2v-3.6h-3.3v3.6h-1.2V16h1.2V19z"/>
		<path fill="#FFFFFF" d="M119.9,19.9c0,2.2-1.7,4-4,4c-2.3,0-4-1.7-4-4s1.7-4,4-4C118.2,15.9,119.9,17.6,119.9,19.9z M118.8,19.9
			c0-1.7-1.2-2.9-2.8-2.9c-1.6,0-2.8,1.2-2.8,2.9c0,1.7,1.2,2.9,2.8,2.9C117.6,22.8,118.8,21.6,118.8,19.9z"/>
		<path fill="#FFFFFF" d="M120.9,20.7h2.7v1.2h-2.7V20.7z"/>
		<path fill="#FFFFFF" d="M126.7,16c0.5,0,1.1,0,1.7,0.4c0.6,0.4,0.9,1.2,0.9,1.9c0,0.4-0.1,1.1-0.7,1.7c-0.6,0.5-1.3,0.6-1.9,0.6
			h-0.5v3.1h-1.2V16H126.7z M126.2,19.5h0.5c1,0,1.5-0.5,1.5-1.2c0-0.4-0.2-1.2-1.5-1.2h-0.5V19.5z"/>
		<path fill="#FFFFFF" d="M134.8,17.1h-3V19h3v1.1h-3v2.5h3v1.1h-4.2V16h4.2V17.1z"/>
		<path fill="#FFFFFF" d="M141.9,17.8c-0.8-0.8-1.6-0.8-2.1-0.8c-1.7,0-2.8,1.2-2.8,2.9c0,1.6,1.2,2.9,2.8,2.9
			c0.9,0,1.6-0.5,2.1-0.9v1.4c-0.8,0.5-1.6,0.6-2.1,0.6c-1.4,0-2.3-0.6-2.7-1.1c-0.9-0.8-1.2-1.8-1.2-2.9c0-1.4,0.6-2.4,1.2-3
			c0.8-0.7,1.7-1,2.8-1c0.7,0,1.4,0.1,2,0.5V17.8z"/>
		<path fill="#FFFFFF" d="M145.5,17.1v6.5h-1.2v-6.5h-1.8V16h4.7v1.1H145.5z"/>
		<path fill="#FFFFFF" d="M152.2,21.8h-3.3l-0.8,1.8h-1.3l3.8-8.1l3.6,8.1H153L152.2,21.8z M151.7,20.7l-1.1-2.6l-1.2,2.6H151.7z"/>
		<path fill="#FFFFFF" d="M156.4,16c1,0,1.4,0.1,1.8,0.4c0.4,0.2,0.9,0.7,0.9,1.7c0,0.4-0.1,1-0.6,1.4c0.9,0.3,1.3,1,1.3,1.8
			c0,0.4,0,1.2-0.8,1.8c-0.6,0.5-1.3,0.5-2,0.5h-1.8V16H156.4z M156.4,19.3h0.4c0.3,0,1.2,0,1.2-1.1c0-0.9-0.7-1.1-1.2-1.1h-0.4
			V19.3z M156.4,22.6h0.7c1.3,0,1.5-0.7,1.5-1.1c0-0.5-0.3-1.2-1.5-1.2h-0.7V22.6z"/>
		<path fill="#FFFFFF" d="M162.9,16c0.5,0,1.1,0,1.7,0.4c0.6,0.4,1,1.2,1,1.9c0,0.4-0.1,1.1-0.7,1.7c-0.6,0.5-1.3,0.6-1.9,0.6h-0.5
			v3.1h-1.2V16H162.9z M162.4,19.5h0.5c1,0,1.5-0.5,1.5-1.2c0-0.4-0.2-1.2-1.5-1.2h-0.5V19.5z"/>
		<path fill="#FFFFFF" d="M170.9,21.8h-3.3l-0.8,1.8h-1.3l3.8-8.1l3.6,8.1h-1.3L170.9,21.8z M170.4,20.7l-1.1-2.6l-1.2,2.6H170.4z"
			/>
		<path fill="#FFFFFF" d="M173.9,16h1.2v6.5h3.2V16h1.2v6.5h1v2.8h-1.1v-1.7h-5.4V16z"/>
		<path fill="#FFFFFF" d="M186.6,18.5l-5.2,5.5v-8h1.2v5.2l5.1-5.5v8h-1.2V18.5z"/>
		<path fill="#FFFFFF" d="M197.2,19.9c0,2.2-1.7,4-4,4s-4-1.7-4-4s1.7-4,4-4S197.2,17.6,197.2,19.9z M196,19.9
			c0-1.7-1.2-2.9-2.8-2.9s-2.8,1.2-2.8,2.9c0,1.7,1.2,2.9,2.8,2.9S196,21.6,196,19.9z"/>
		<path fill="#FFFFFF" d="M199.8,19h3.3v-3h1.2v7.6h-1.2v-3.6h-3.3v3.6h-1.2V16h1.2V19z"/>
		<path fill="#FFFFFF" d="M207.3,19h3.3v-3h1.2v7.6h-1.2v-3.6h-3.3v3.6h-1.2V16h1.2V19z"/>
		<path fill="#FFFFFF" d="M213.6,16h1.2v3.1h0.9c0.5,0,1.3,0.1,1.9,0.6c0.4,0.4,0.7,1,0.7,1.7s-0.3,1.4-1,1.9
			c-0.5,0.4-1.2,0.4-1.7,0.4h-2V16z M214.7,22.6h0.8c0.3,0,1.5,0,1.5-1.2c0-0.5-0.3-1.2-1.5-1.2h-0.8V22.6z M220.2,16v7.6H219V16
			H220.2z"/>
		<path fill="#FFFFFF" d="M227.2,18.5L222,24v-8h1.2v5.2l5.1-5.5v8h-1.2V18.5z M224.2,13.7c0.2,0.6,0.9,0.6,1,0.6s0.8,0,1-0.6
			l0.9,0.4c-0.3,0.8-1.1,1.2-1.9,1.2c-0.8,0-1.6-0.3-1.9-1.2L224.2,13.7z"/>
		<path fill="#FFFFFF" d="M232.9,16h1.2v6.5h3.2V16h1.2v6.5h1v2.8h-1.1v-1.7h-5.4V16z"/>
		<path fill="#FFFFFF" d="M244.6,17.1h-3V19h3v1.1h-3v2.5h3v1.1h-4.2V16h4.2V17.1z"/>
		<path fill="#FFFFFF" d="M247.3,19h3.3v-3h1.2v7.6h-1.2v-3.6h-3.3v3.6h-1.2V16h1.2V19z"/>
		<path fill="#FFFFFF" d="M255.7,17.1v6.5h-1.2v-6.5h-1.8V16h4.7v1.1H255.7z"/>
		<path fill="#FFFFFF" d="M260.2,16c0.5,0,1.1,0,1.7,0.4c0.6,0.4,1,1.2,1,1.9c0,0.4-0.1,1.1-0.7,1.7c-0.6,0.5-1.3,0.6-1.9,0.6h-0.5
			v3.1h-1.2V16H260.2z M259.6,19.5h0.5c1,0,1.5-0.5,1.5-1.2c0-0.4-0.2-1.2-1.5-1.2h-0.5V19.5z"/>
		<path fill="#FFFFFF" d="M82,32.3l-5.1,5.5v-8H78V35l5.1-5.5v8H82V32.3z"/>
		<path fill="#FFFFFF" d="M84.8,37.4l1.6-8.2l2.7,5.9l2.7-5.9l1.4,8.2h-1.2l-0.8-4.6l-2.2,5l-2.2-5l-0.8,4.6H84.8z"/>
		<path fill="#FFFFFF" d="M99,30.9h-3v1.8h3v1.1h-3v2.5h3v1.1h-4.2v-7.6H99V30.9z"/>
		<path fill="#FFFFFF" d="M101.6,32.8h3.3v-3h1.2v7.6h-1.2v-3.6h-3.3v3.6h-1.2v-7.6h1.2V32.8z"/>
		<path fill="#FFFFFF" d="M113.1,32.3l-5.1,5.5v-8h1.2V35l5.1-5.5v8h-1.2V32.3z"/>
		<path fill="#FFFFFF" d="M123.2,35.6H120l-0.8,1.8h-1.3l3.8-8.1l3.6,8.1H124L123.2,35.6z M122.7,34.5l-1.1-2.6l-1.2,2.6H122.7z"/>
		<path fill="#FFFFFF" d="M127.4,32.8l3-3h1.5l-3.4,3.5l3.5,4.2h-1.6l-2.7-3.4l-0.2,0.2v3.2h-1.2v-7.6h1.2V32.8z"/>
		<path fill="#FFFFFF" d="M137.4,35.6h-3.3l-0.8,1.8h-1.3l3.8-8.1l3.6,8.1h-1.3L137.4,35.6z M137,34.5l-1.1-2.6l-1.2,2.6H137z"/>
		<path fill="#FFFFFF" d="M146,29.8v6.5h0.9v2.8h-1.1v-1.7h-4.9v1.7h-1.1v-2.8c0.5,0,1-0.5,1.2-1c0.1-0.4,0.3-0.9,0.3-2v-3.5H146z
			 M142.4,33.3c0,1.2-0.1,1.8-0.3,2.1c-0.2,0.4-0.4,0.7-0.6,0.9h3.3v-5.4h-2.4V33.3z"/>
		<path fill="#FFFFFF" d="M152.1,30.9h-3v1.8h3v1.1h-3v2.5h3v1.1h-4.2v-7.6h4.2V30.9z"/>
		<path fill="#FFFFFF" d="M153.4,37.4l1.6-8.2l2.7,5.9l2.7-5.9l1.4,8.2h-1.2l-0.8-4.6l-2.2,5l-2.2-5l-0.8,4.6H153.4z"/>
		<path fill="#FFFFFF" d="M168.5,32.3l-5.1,5.5v-8h1.2V35l5.1-5.5v8h-1.2V32.3z"/>
		<path fill="#FFFFFF" d="M172.7,32.8l3-3h1.5l-3.4,3.5l3.5,4.2h-1.6l-2.7-3.4l-0.2,0.2v3.2h-1.2v-7.6h1.2V32.8z"/>
		<path fill="#FFFFFF" d="M182.7,35.6h-3.3l-0.8,1.8h-1.3l3.8-8.1l3.6,8.1h-1.3L182.7,35.6z M182.3,34.5l-1.1-2.6l-1.2,2.6H182.3z"
			/>
		<path fill="#FFFFFF" d="M193.6,32.3l-5.1,5.5v-8h1.2V35l5.1-5.5v8h-1.2V32.3z"/>
		<path fill="#FFFFFF" d="M197.1,36.2c0.4,0,0.7,0.3,0.7,0.7c0,0.4-0.3,0.7-0.7,0.7c-0.4,0-0.7-0.3-0.7-0.7
			C196.4,36.5,196.7,36.2,197.1,36.2z"/>
		<path fill="#FFFFFF" d="M199.1,30.2c0.5-0.3,1.1-0.5,2.2-0.5c0.9,0,1.9,0.2,2.7,1c0.6,0.6,1.1,1.6,1.1,3c0,1.1-0.3,2.1-1.1,2.9
			c-0.8,0.8-1.7,1.1-2.7,1.1c-1.1,0-1.8-0.3-2.2-0.6v-1.4c0.8,0.8,1.7,0.9,2.1,0.9c0.9,0,1.6-0.3,2.1-0.8c0.4-0.4,0.6-1,0.7-1.6
			h-3.8V33h3.8c-0.1-0.6-0.4-1.1-0.7-1.5c-0.5-0.6-1.2-0.7-1.9-0.7c-0.5,0-1.3,0.1-2.2,0.8V30.2z"/>
		<path fill="#FFFFFF" d="M207.1,36.2c0.4,0,0.7,0.3,0.7,0.7c0,0.4-0.3,0.7-0.7,0.7c-0.4,0-0.7-0.3-0.7-0.7
			C206.4,36.5,206.7,36.2,207.1,36.2z"/>
		<path fill="#FFFFFF" d="M212.1,29.8h3.8v1.1h-2.7v6.5h-1.2V29.8z"/>
		<path fill="#FFFFFF" d="M218.7,29.8c0.5,0,1.1,0,1.7,0.4c0.6,0.4,1,1.2,1,1.9c0,0.4-0.1,1.1-0.7,1.7c-0.6,0.5-1.3,0.6-1.9,0.6
			h-0.5v3.1H217v-7.6H218.7z M218.2,33.2h0.5c1,0,1.5-0.5,1.5-1.2c0-0.4-0.2-1.2-1.5-1.2h-0.5V33.2z"/>
		<path fill="#FFFFFF" d="M226.7,35.6h-3.3l-0.8,1.8h-1.3l3.8-8.1l3.6,8.1h-1.3L226.7,35.6z M226.2,34.5l-1.1-2.6l-1.2,2.6H226.2z"
			/>
		<path fill="#FFFFFF" d="M229.7,29.8h3.8v1.1h-2.7v2h0.8c0.5,0,1.3,0.1,1.9,0.6c0.4,0.4,0.7,1,0.7,1.7s-0.3,1.4-1,1.9
			c-0.5,0.4-1.2,0.4-1.7,0.4h-1.9V29.8z M230.9,36.3h0.7c0.3,0,1.5,0,1.5-1.2c0-0.5-0.3-1.2-1.5-1.2h-0.7V36.3z"/>
		<path fill="#FFFFFF" d="M240.2,35.6H237l-0.8,1.8h-1.3l3.8-8.1l3.6,8.1H241L240.2,35.6z M239.8,34.5l-1.1-2.6l-1.2,2.6H239.8z"/>
		<path fill="#FFFFFF" d="M244.9,29.8c0.5,0,1.1,0,1.7,0.4c0.6,0.4,1,1.2,1,1.9c0,0.4-0.1,1.1-0.7,1.7c-0.6,0.5-1.3,0.6-1.9,0.6
			h-0.5v3.1h-1.2v-7.6H244.9z M244.4,33.2h0.5c1,0,1.5-0.5,1.5-1.2c0-0.4-0.2-1.2-1.5-1.2h-0.5V33.2z"/>
		<path fill="#FFFFFF" d="M250.3,34.2c-0.4,0-0.8-0.2-1.2-0.5c-0.5-0.5-0.7-1.1-0.7-1.6s0.1-1.1,0.6-1.6c0.7-0.7,1.5-0.7,2.1-0.7
			h1.9v7.6h-1.2v-3.1h-0.3l-2.1,3.1h-1.4L250.3,34.2z M251.3,30.9c-0.6,0-1,0.1-1.3,0.4c-0.2,0.2-0.4,0.5-0.4,0.9
			c0,0.5,0.3,0.8,0.4,0.9c0.3,0.2,0.8,0.3,1.2,0.3h0.6v-2.4H251.3z"/>
	</g>
	<g>
		<path fill="#FFFFFF" d="M47.4,15.7c0-8-6.5-14.4-14.4-14.4c-8,0-14.4,6.5-14.4,14.4c0,2.7,0.8,5.5,2.2,7.8l-1.7,2
			c-1.4-2-2.7-5-2.8-9.4c-0.3-7.8,5.2-12.4,5.2-12.4l-1-1.6c0,0-6.8,1.7-14.2,10.3C0.9,18.3,0,28.6,0,28.6h5.3c0,0,1-4.5,2-7.8
			c1-3.3,4-6.1,4-6.1s-0.1,2.8,0.5,6c0.6,3.2,3.8,8,3.8,8l2.5,0h24.3l-1.1-1.1C45,24.8,47.4,20.4,47.4,15.7z M30.4,26.1
			c-1.5-0.2-3.5-1.6-4.1-2.1c-0.7-0.5-0.3-0.7-0.3-0.7l4.8-7.2L30.7,14c0,0,1.1-1.1,2-1.6c0.9-0.6,2-0.6,3.9-0.1
			c1.9,0.5,1.8,2.2,1.8,2.2l-4.7,6.1c0,0-0.6-0.3-1.3-0.6c-0.7-0.3-0.7,0.7-0.7,0.7l0.3,1.1l2.3,3.9C34.3,25.7,33.9,26.5,30.4,26.1z
			 M38,24.5l-3.4-2.9l4.2-4.7c0,0,0.9,0.5,1.6-0.3c0.8-0.7,1.2-1.2,1.1-2.6c-0.2-1.8-0.9-1.6-0.9-1.6s0.3-3.4-1.6-4.8
			c-2-1.4-4-2.3-6.3-2c-2.2,0.3-4.5,1.3-5.4,3.6c-0.9,2.3-0.4,5.7-0.4,5.7l-2.3,0.6l-0.5,2c0,0-0.6,0.3-1,0.3s-0.5,0.3-0.5,0.3
			l0,0.1c-0.2-0.9-0.4-1.8-0.4-2.7c0-5.9,4.8-10.7,10.7-10.7c5.9,0,10.7,4.8,10.7,10.7c0,3.8-2.1,7.3-5.4,9.3L38,24.5z M40.6,27
			l-1.8-1.8c3.4-2,5.5-5.7,5.5-9.7c0-6.3-5.1-11.3-11.3-11.3c-6.3,0-11.3,5.1-11.3,11.3c0,1.1,0.4,2.8,0.7,3.9l-0.8,3l-0.4,0.4
			c-1.3-2.2-2-4.6-2-7.2c0-7.6,6.2-13.8,13.8-13.8c7.6,0,13.8,6.2,13.8,13.8C46.7,20.2,44.4,24.5,40.6,27z M59.2,12.1
			C51.9,3.6,45,1.8,45,1.8l-1,1.6c0,0,5.5,4.6,5.2,12.4c-0.4,9.6-6.1,12.6-6.1,12.6l6.7,0.1c0,0,3.2-4.7,3.8-7.9
			c0.6-3.2,0.5-6,0.5-6s3,2.8,4,6.1c1,3.3,2,7.8,2,7.8h5.3C65.4,28.6,64.4,18.3,59.2,12.1z"/>
	</g>
	<g>
		<path fill="#FFFFFF" d="M7,34.7c0,1.6-1.2,2.7-2.8,2.7s-2.8-1.2-2.8-2.7c0-1.6,1.2-2.7,2.8-2.7S7,33.2,7,34.7z M6.2,34.7
			c0-1.2-0.8-2-1.9-2c-1.1,0-1.9,0.8-1.9,2c0,1.2,0.8,2,1.9,2C5.4,36.7,6.2,35.9,6.2,34.7z"/>
		<path fill="#FFFFFF" d="M12,33.3c-0.6-0.5-1.1-0.6-1.4-0.6c-1.2,0-1.9,0.8-1.9,2c0,1.1,0.8,2,1.9,2c0.6,0,1.1-0.3,1.4-0.6v1
			c-0.5,0.3-1.1,0.4-1.5,0.4c-1,0-1.6-0.4-1.9-0.7c-0.6-0.6-0.8-1.3-0.8-2c0-1,0.4-1.7,0.8-2.1c0.5-0.5,1.2-0.7,1.9-0.7
			c0.5,0,1,0.1,1.4,0.4V33.3z"/>
		<path fill="#FFFFFF" d="M13.8,34.2h2.3v-2.1h0.8v5.3h-0.8v-2.5h-2.3v2.5H13v-5.3h0.8V34.2z"/>
		<path fill="#FFFFFF" d="M23.4,34.7c0,1.6-1.2,2.7-2.8,2.7s-2.8-1.2-2.8-2.7c0-1.6,1.2-2.7,2.8-2.7S23.4,33.2,23.4,34.7z
			 M22.6,34.7c0-1.2-0.8-2-1.9-2c-1.1,0-1.9,0.8-1.9,2c0,1.2,0.8,2,1.9,2C21.8,36.7,22.6,35.9,22.6,34.7z"/>
		<path fill="#FFFFFF" d="M25.2,32.1c0.7,0,1,0.1,1.3,0.3c0.2,0.2,0.6,0.5,0.6,1.2c0,0.3-0.1,0.7-0.4,1c0.6,0.2,0.9,0.7,0.9,1.2
			c0,0.3,0,0.8-0.5,1.2c-0.4,0.4-0.9,0.4-1.4,0.4h-1.2v-5.3H25.2z M25.2,34.4h0.2c0.2,0,0.9,0,0.9-0.8c0-0.7-0.5-0.7-0.8-0.7h-0.3
			V34.4z M25.2,36.6h0.5c0.9,0,1.1-0.5,1.1-0.8c0-0.4-0.2-0.8-1-0.8h-0.5V36.6z"/>
		<path fill="#FFFFFF" d="M31.7,36.1h-2.3l-0.6,1.3H28l2.6-5.6l2.5,5.6h-0.9L31.7,36.1z M31.4,35.3l-0.8-1.8l-0.8,1.8H31.4z"/>
		<path fill="#FFFFFF" d="M34.6,34.2h2.3v-2.1h0.8v5.3h-0.8v-2.5h-2.3v2.5h-0.8v-5.3h0.8V34.2z"/>
		<path fill="#FFFFFF" d="M41.6,32.1c0.7,0,1,0.1,1.3,0.3c0.2,0.2,0.6,0.5,0.6,1.2c0,0.3-0.1,0.7-0.4,1c0.6,0.2,0.9,0.7,0.9,1.2
			c0,0.3,0,0.8-0.5,1.2c-0.4,0.4-0.9,0.4-1.4,0.4h-1.2v-5.3H41.6z M41.6,34.4h0.2c0.2,0,0.9,0,0.9-0.8c0-0.7-0.5-0.7-0.8-0.7h-0.3
			V34.4z M41.6,36.6h0.5c0.9,0,1.1-0.5,1.1-0.8c0-0.4-0.2-0.8-1-0.8h-0.5V36.6z"/>
		<path fill="#FFFFFF" d="M48.2,32.8h-0.9l0.4-0.7H49v5.3h-0.8V32.8z"/>
		<path fill="#FFFFFF" d="M51.8,37.1l1.3-1.7c-0.1,0-0.2,0-0.2,0c-0.7,0-1.6-0.6-1.6-1.7c0-1,0.7-1.8,1.8-1.8c1.2,0,1.8,0.9,1.8,1.7
			c0,0.5-0.3,1-0.5,1.3l-1.8,2.5L51.8,37.1z M53.9,33.7c0-0.6-0.4-1-1-1s-1,0.4-1,1c0,0.6,0.4,1,1,1C53.5,34.7,53.9,34.3,53.9,33.7z
			"/>
		<path fill="#FFFFFF" d="M57.2,32.8h-0.9l0.4-0.7H58v5.3h-0.8V32.8z"/>
		<path fill="#FFFFFF" d="M63.6,35.9c0,1-0.8,1.6-1.7,1.6s-1.7-0.6-1.7-1.6c0-0.9,0.6-1.2,0.7-1.2c-0.3-0.2-0.6-0.6-0.6-1.1
			c0-1,0.7-1.5,1.5-1.5s1.5,0.6,1.5,1.5c0,0.5-0.3,0.9-0.6,1.1C63.1,34.7,63.6,35,63.6,35.9z M62.8,35.9c0-0.5-0.4-0.9-0.9-0.9
			s-0.9,0.4-0.9,0.9c0,0.5,0.4,0.9,0.9,0.9S62.8,36.4,62.8,35.9z M62.8,33.5c0-0.5-0.3-0.8-0.8-0.8s-0.8,0.3-0.8,0.8
			c0,0.6,0.4,0.8,0.8,0.8S62.8,34.1,62.8,33.5z"/>
	</g>
</g>
</svg>
